<svg width="24" height="24" fill="none" xmlns="http://www.w3.org/2000/svg"><path fill-rule="evenodd" clip-rule="evenodd" d="M12.705 19.295a.997.997 0 01-1.41-1.41L16.17 13H5a1 1 0 110-2h11.17l-4.876-4.885a.997.997 0 011.411-1.41L20 12l-7.295 7.295z" fill="#C2D1D9"/><mask id="a" style="mask-type:alpha" maskUnits="userSpaceOnUse" x="4" y="4" width="16" height="16"><path fill-rule="evenodd" clip-rule="evenodd" d="M12.705 19.295a.997.997 0 01-1.41-1.41L16.17 13H5a1 1 0 110-2h11.17l-4.876-4.885a.997.997 0 011.411-1.41L20 12l-7.295 7.295z" fill="#fff"/></mask><g mask="url(#a)"><path fill="#424B5A" d="M24 24H0V0h24z"/></g></svg>