<svg width="17" height="17" fill="none" xmlns="http://www.w3.org/2000/svg"><g clip-path="url(#clip0_36_465)"><path d="M4.017 16.571H.78V5.936h3.33V16.57h-.093zM2.352 4.456C1.335 4.456.41 3.623.41 2.514.41 1.496 1.243.57 2.352.57c1.018 0 1.943.833 1.943 1.943s-.833 1.942-1.943 1.942zM16.41 16.57h-3.33v-5.179c0-1.202 0-2.774-1.664-2.774-1.757 0-1.942 1.294-1.942 2.682v5.271h-3.33V5.936H9.29v1.48c.462-.833 1.48-1.665 3.144-1.665 3.33 0 3.977 2.22 3.977 5.086v5.734z" fill="#fff"/></g><defs><clipPath id="clip0_36_465"><path fill="#fff" transform="translate(.41 .571)" d="M0 0h16v16H0z"/></clipPath></defs></svg>